<?xml version="1.0" encoding="utf-8"?>
<!-- Generator: Adobe Illustrator 16.0.0, SVG Export Plug-In . SVG Version: 6.00 Build 0)  -->
<!DOCTYPE svg PUBLIC "-//W3C//DTD SVG 1.1//EN" "http://www.w3.org/Graphics/SVG/1.1/DTD/svg11.dtd">
<svg version="1.1" id="Livello_1" xmlns="http://www.w3.org/2000/svg" xmlns:xlink="http://www.w3.org/1999/xlink" x="0px" y="0px"
	 width="120px" height="24px" viewBox="0 0 120 24" enable-background="new 0 0 120 24" xml:space="preserve">
<g>
	<path fill="#E60012" d="M16.018,0.685v22.631c1.65-0.583,3.198-1.538,4.512-2.867c4.657-4.708,4.622-12.307-0.076-16.972
		C19.155,2.186,17.634,1.257,16.018,0.685z"/>
	<path fill="#FFFFFF" d="M7.982,0.7v22.598c2.593,0.93,5.441,0.937,8.035,0.018V0.685C13.422-0.233,10.574-0.229,7.982,0.7z"/>
	<path fill="#00913A" d="M7.982,0.685v22.631c-1.649-0.583-3.198-1.538-4.512-2.867C-1.186,15.74-1.152,8.141,3.547,3.477
		C4.846,2.186,6.365,1.257,7.982,0.685z"/>
</g>
<g>
	<path fill="#0B318F" d="M25.422,6.332c-0.462,0.86-0.821,1.783-1.063,2.753h4.772L25.422,6.332z"/>
	<path fill="#0B318F" d="M33.084,0.359c-2.146,0.536-4.064,1.647-5.577,3.163l5.577,4.137V0.359z"/>
	<path fill="#0B318F" d="M38.916,23.643c2.146-0.538,4.064-1.648,5.577-3.165l-5.577-4.137V23.643z"/>
	<path fill="#0B318F" d="M46.579,17.668c0.461-0.858,0.821-1.783,1.062-2.752h-4.772L46.579,17.668z"/>
	<path fill="#0B318F" d="M47.641,9.084c-0.241-0.97-0.601-1.893-1.062-2.753l-3.71,2.753H47.641z"/>
	<path fill="#0B318F" d="M29.131,14.916h-4.772c0.242,0.969,0.601,1.894,1.063,2.752L29.131,14.916z"/>
	<path fill="#0B318F" d="M27.507,20.478c1.513,1.517,3.431,2.627,5.577,3.165v-7.302L27.507,20.478z"/>
	<path fill="#0B318F" d="M44.493,3.522c-1.514-1.516-3.431-2.627-5.577-3.163v7.3L44.493,3.522z"/>
	<path fill="#E60012" d="M32.069,9.084l-5.708-4.233c-0.231,0.312-0.448,0.636-0.65,0.97l4.399,3.264H32.069z"/>
	<path fill="#E60012" d="M39.932,14.916l5.706,4.232c0.232-0.313,0.45-0.635,0.65-0.969l-4.399-3.264H39.932z"/>
	<path fill="#E60012" d="M33.084,14.916h-1.016l-5.707,4.232c0.232,0.313,0.479,0.613,0.74,0.903l5.982-4.437V14.916z"/>
	<path fill="#E60012" d="M38.916,9.084h1.016l5.707-4.233c-0.232-0.313-0.479-0.614-0.74-0.903l-5.982,4.437V9.084z"/>
	<path fill="#FFFFFF" d="M47.872,13.751h-8.956H37.75v10.12c0.395-0.059,0.784-0.133,1.166-0.229v-7.302l5.577,4.137
		c0.414-0.414,0.795-0.859,1.146-1.329l-5.706-4.232h1.958l4.399,3.264c0.1-0.168,0.198-0.339,0.291-0.512l-3.71-2.752h4.772
		C47.737,14.534,47.814,14.146,47.872,13.751z"/>
	<path fill="#FFFFFF" d="M47.641,9.084h-4.772l3.71-2.753c-0.278-0.517-0.593-1.012-0.941-1.48l-5.707,4.233h-1.016v-0.7
		l5.982-4.437c-0.132-0.145-0.266-0.287-0.405-0.426l-5.577,4.137v-7.3c-0.382-0.096-0.771-0.172-1.166-0.23V10.25h1.166h8.956
		C47.814,9.855,47.737,9.466,47.641,9.084z"/>
	<g>
		<path fill="#FFFFFF" d="M24.128,13.751c0.058,0.395,0.134,0.783,0.23,1.165h4.772l-3.709,2.752c0.277,0.519,0.592,1.014,0.94,1.48
			l5.707-4.232h1.016v0.699l-5.982,4.437c0.132,0.146,0.267,0.287,0.405,0.426l5.577-4.137v7.302
			c0.381,0.096,0.771,0.17,1.166,0.229v-10.12h-1.166H24.128z"/>
		<path fill="#FFFFFF" d="M33.084,0.359v7.3l-5.577-4.137c-0.414,0.414-0.795,0.859-1.146,1.329l5.708,4.233h-1.958l-4.399-3.264
			c-0.101,0.168-0.198,0.338-0.29,0.511l3.709,2.753h-4.772c-0.096,0.382-0.172,0.771-0.23,1.166h8.956h1.166V0.128
			C33.855,0.187,33.466,0.263,33.084,0.359z"/>
	</g>
	<path fill="#E60012" d="M47.872,10.25h-8.956H37.75V0.128C37.179,0.045,36.595,0,36,0c-0.595,0-1.179,0.045-1.75,0.128V10.25
		h-1.166h-8.956C24.045,10.822,24,11.406,24,12c0,0.594,0.045,1.178,0.128,1.75h8.956h1.166v10.12c0.571,0.084,1.155,0.13,1.75,0.13
		c0.594,0,1.178-0.046,1.75-0.13v-10.12h1.166h8.956C47.955,13.179,48,12.594,48,12C48,11.406,47.955,10.822,47.872,10.25z"/>
</g>
<g>
	<path fill="#E60012" d="M64.019,0.685v22.632c1.649-0.583,3.197-1.538,4.512-2.867c4.656-4.708,4.622-12.308-0.076-16.974
		C67.155,2.186,65.635,1.257,64.019,0.685z"/>
	<path fill="#FFFFFF" d="M55.983,0.7v22.599c2.593,0.93,5.439,0.936,8.035,0.018V0.685C61.421-0.233,58.574-0.229,55.983,0.7z"/>
	<path fill="#0B318F" d="M55.983,0.684v22.632c-1.65-0.584-3.199-1.539-4.513-2.867c-4.658-4.709-4.623-12.309,0.076-16.975
		C52.846,2.185,54.366,1.256,55.983,0.684z"/>
</g>
<g>
	<path fill="#E60012" d="M84,0c-4.44,0-8.314,2.415-10.391,6h20.782C92.316,2.415,88.441,0,84,0z"/>
	<path fill="#FFE200" d="M96,12c0-2.187-0.587-4.234-1.608-6H73.609C72.588,7.766,72,9.813,72,12s0.588,4.234,1.609,6h20.782
		C95.413,16.234,96,14.187,96,12z"/>
	<path fill="#E60012" d="M94.392,18H73.609c2.076,3.586,5.95,6,10.391,6C88.441,24,92.316,21.586,94.392,18z"/>
</g>
<g>
	<path fill="#E60012" d="M120,12c0-1.403-0.242-2.748-0.686-4H96.686C96.244,9.251,96,10.597,96,12s0.244,2.749,0.686,4h22.629
		C119.758,14.748,120,13.402,120,12z"/>
	<path fill="#231815" d="M108,0c-5.225,0-9.666,3.339-11.314,8h22.629C117.668,3.339,113.225,0,108,0z"/>
	<path fill="#FFE200" d="M119.314,16H96.686c1.648,4.66,6.09,8,11.314,8S117.668,20.66,119.314,16z"/>
</g>
<g>
</g>
<g>
</g>
<g>
</g>
<g>
</g>
<g>
</g>
<g>
</g>
<g>
</g>
<g>
</g>
<g>
</g>
<g>
</g>
<g>
</g>
<g>
</g>
<g>
</g>
<g>
</g>
<g>
</g>
</svg>
